<?xml version="1.0" standalone="no"?>
<!DOCTYPE svg PUBLIC "-//W3C//DTD SVG 20010904//EN"
 "http://www.w3.org/TR/2001/REC-SVG-20010904/DTD/svg10.dtd">
<svg version="1.0" xmlns="http://www.w3.org/2000/svg"
 width="300.000000pt" height="300.000000pt" viewBox="0 0 300.000000 300.000000"
 preserveAspectRatio="xMidYMid meet">
<metadata>
Created by potrace 1.11, written by Peter Selinger 2001-2013
</metadata>
<g transform="translate(0.000000,300.000000) scale(0.100000,-0.100000)"
fill="#000000" stroke="none">
<path d="M1418 2611 c-29 -16 -69 -38 -88 -49 -19 -12 -62 -36 -95 -55 -33
-19 -190 -110 -350 -202 -159 -93 -302 -174 -317 -182 -45 -23 -78 -70 -78
-110 0 -28 7 -43 33 -66 31 -29 521 -317 538 -317 5 0 9 -4 9 -9 0 -5 6 -11
14 -13 21 -4 1105 -632 1106 -639 0 -3 -52 -37 -116 -74 -90 -53 -120 -66
-133 -58 -20 12 -584 339 -627 363 -16 10 -165 95 -330 191 -368 213 -444 254
-454 243 -10 -11 -30 -76 -37 -114 -5 -37 21 -95 56 -119 24 -17 263 -158 369
-217 24 -14 132 -76 240 -138 109 -62 213 -123 232 -134 19 -11 91 -52 160
-92 69 -40 137 -79 152 -87 15 -8 30 -18 33 -22 2 -5 -47 -39 -111 -76 -99
-58 -119 -66 -137 -57 -27 14 -34 18 -479 276 -197 114 -386 220 -420 236
l-63 30 -17 -63 c-32 -111 -9 -158 107 -222 28 -15 91 -51 140 -80 50 -29 110
-64 135 -77 25 -14 113 -65 195 -113 83 -48 164 -96 181 -105 16 -10 67 -39
111 -65 103 -59 146 -62 231 -14 69 39 63 35 332 191 118 69 287 167 375 217
88 51 170 104 183 117 34 39 30 92 -10 131 -18 17 -157 102 -308 188 -151 87
-329 189 -395 228 -66 38 -136 79 -155 90 -51 28 -815 469 -817 471 -3 3 220
130 234 134 11 3 161 -80 403 -223 58 -34 125 -73 150 -87 25 -14 133 -76 240
-138 107 -62 215 -124 240 -138 25 -14 57 -33 72 -43 14 -11 28 -19 30 -19 3
0 71 -38 151 -84 81 -46 149 -81 151 -78 2 4 9 23 15 43 29 89 20 147 -27 191
-25 23 -44 35 -140 90 -18 10 -93 53 -165 95 -73 42 -152 87 -177 101 -25 13
-49 27 -55 32 -5 4 -30 19 -55 32 -76 42 -574 330 -593 343 -16 12 -10 18 65
63 46 27 99 59 119 70 l37 20 58 -35 c55 -33 803 -465 886 -512 l37 -20 12 42
c24 87 16 169 -20 201 -9 8 -104 65 -211 127 -221 127 -247 142 -292 167 -18
11 -120 69 -226 131 -225 131 -248 138 -334 92z"/>
</g>
</svg>
